<svg xmlns="http://www.w3.org/2000/svg" width="48" height="48" fill="none" viewBox="0 0 48 48">
  <rect width="48" height="48" fill="#F88E76" rx="24"/>
  <path fill="#000" d="m23 19.5-.799 5.19a1.572 1.572 0 0 0 1.554 1.81h2.274a1.557 1.557 0 0 0 1.413-2.209L25 19c-.304-.913-1.605-.884-1.869.04L23 19.5ZM9.16 27.084l.424-.282c.3-.2.569-.444.797-.723l.115-.14a1.738 1.738 0 0 0 .302-1.651l-.072-.215a2.261 2.261 0 0 0-.24-.503l-.208-.324a2.416 2.416 0 0 0-2.628-1.038l-.272.069a3.171 3.171 0 0 0-1.506.875l-.109.113a2.142 2.142 0 0 0-.534 2.003l.063.251a2.614 2.614 0 0 0 1.086 1.542l.035.023a2.477 2.477 0 0 0 2.748 0Zm30.383 0-.423-.282c-.3-.2-.569-.444-.797-.723l-.115-.14a1.736 1.736 0 0 1-.302-1.652l.071-.214c.06-.177.14-.346.241-.503l.208-.324a2.417 2.417 0 0 1 2.628-1.038l.272.069a3.171 3.171 0 0 1 1.506.875l.109.113a2.142 2.142 0 0 1 .534 2.003l-.063.251a2.615 2.615 0 0 1-1.086 1.542l-.035.023a2.476 2.476 0 0 1-2.748 0Zm-6.907.552a.9.9 0 1 0-1.273-1.272l-.053.053a9.19 9.19 0 0 1-6.466 2.683h-.792a9.1 9.1 0 0 1-3.584-.736l-1.614-.691a.9.9 0 0 0-.709 1.654l1.614.692c1.356.581 2.817.881 4.293.881h.792a10.988 10.988 0 0 0 7.739-3.21l.053-.054Z"/>
</svg>
